<svg xmlns="http://www.w3.org/2000/svg" width="1200" height="820" viewBox="0 0 1200 820" preserveAspectRatio="xMidYMid slice">
  <defs>
    <linearGradient id="bg" x1="0" y1="0" x2="1" y2="1">
      <stop offset="0" stop-color="#0d1017"/><stop offset="0.55" stop-color="#0a0c11"/><stop offset="1" stop-color="#070809"/>
    </linearGradient>
    <pattern id="grid" width="40" height="40" patternUnits="userSpaceOnUse">
      <path d="M40 0H0V40" fill="none" stroke="rgba(233,236,242,0.10)" stroke-width="1"/>
    </pattern>
    <linearGradient id="glow" x1="0" y1="0" x2="0" y2="1">
      <stop offset="0" stop-color="#2f6fe0" stop-opacity="0.5"/><stop offset="1" stop-color="#1f4fa8" stop-opacity="0.05"/>
    </linearGradient>
  </defs>
  <rect x="0" y="0" width="1200" height="820" fill="url(#bg)"/>
  <rect x="0" y="0" width="1200" height="820" fill="url(#grid)"/>
  <rect x="16" y="16" width="1168" height="788" fill="none" stroke="rgba(233,236,242,0.22)" stroke-width="1"/>
  <text x="34" y="790" fill="#e9ecf2" font-family="'IBM Plex Mono',monospace" font-size="17" letter-spacing="2" opacity="0.85">NORTH CROSSING · GENERAL ARRANGEMENT</text>
  <text x="34" y="46" fill="#2f6fe0" font-family="'IBM Plex Mono',monospace" font-size="14" letter-spacing="3">P-02</text>
  <text x="1166" y="46" text-anchor="end" fill="rgba(233,236,242,0.22)" font-family="'IBM Plex Mono',monospace" font-size="13" letter-spacing="2">SCALE 1:1500</text>
<line x1="40" y1="508.4" x2="1160" y2="508.4" stroke="#e9ecf2" stroke-width="3"/><line x1="40" y1="522.4" x2="1160" y2="522.4" stroke="rgba(233,236,242,0.22)" stroke-width="1"/><line x1="408.00000000000006" y1="278.4" x2="408.00000000000006" y2="628.4" stroke="#e9ecf2" stroke-width="4"/><line x1="392.00000000000006" y1="278.4" x2="424.00000000000006" y2="278.4" stroke="#e9ecf2" stroke-width="4"/><line x1="408.00000000000006" y1="286.4" x2="362.00000000000006" y2="508.4" stroke="#2f6fe0" stroke-width="1.3" opacity="0.85"/><line x1="408.00000000000006" y1="286.4" x2="454.00000000000006" y2="508.4" stroke="#2f6fe0" stroke-width="1.3" opacity="0.85"/><line x1="408.00000000000006" y1="286.4" x2="316.00000000000006" y2="508.4" stroke="#2f6fe0" stroke-width="1.3" opacity="0.85"/><line x1="408.00000000000006" y1="286.4" x2="500.00000000000006" y2="508.4" stroke="#2f6fe0" stroke-width="1.3" opacity="0.85"/><line x1="408.00000000000006" y1="286.4" x2="270.00000000000006" y2="508.4" stroke="#2f6fe0" stroke-width="1.3" opacity="0.85"/><line x1="408.00000000000006" y1="286.4" x2="546.0" y2="508.4" stroke="#2f6fe0" stroke-width="1.3" opacity="0.85"/><line x1="408.00000000000006" y1="286.4" x2="224.00000000000006" y2="508.4" stroke="#2f6fe0" stroke-width="1.3" opacity="0.85"/><line x1="408.00000000000006" y1="286.4" x2="592.0" y2="508.4" stroke="#2f6fe0" stroke-width="1.3" opacity="0.85"/><line x1="408.00000000000006" y1="286.4" x2="178.00000000000006" y2="508.4" stroke="#2f6fe0" stroke-width="1.3" opacity="0.85"/><line x1="408.00000000000006" y1="286.4" x2="638.0" y2="508.4" stroke="#2f6fe0" stroke-width="1.3" opacity="0.85"/><line x1="408.00000000000006" y1="286.4" x2="132.00000000000006" y2="508.4" stroke="#2f6fe0" stroke-width="1.3" opacity="0.85"/><line x1="408.00000000000006" y1="286.4" x2="684.0" y2="508.4" stroke="#2f6fe0" stroke-width="1.3" opacity="0.85"/><line x1="408.00000000000006" y1="286.4" x2="86.00000000000006" y2="508.4" stroke="#2f6fe0" stroke-width="1.3" opacity="0.85"/><line x1="408.00000000000006" y1="286.4" x2="730.0" y2="508.4" stroke="#2f6fe0" stroke-width="1.3" opacity="0.85"/><line x1="408.00000000000006" y1="286.4" x2="40.00000000000006" y2="508.4" stroke="#2f6fe0" stroke-width="1.3" opacity="0.85"/><line x1="408.00000000000006" y1="286.4" x2="776.0" y2="508.4" stroke="#2f6fe0" stroke-width="1.3" opacity="0.85"/><rect x="398.00000000000006" y="628.4" width="20" height="60" fill="none" stroke="rgba(233,236,242,0.22)" stroke-width="1.5"/><line x1="792.0" y1="278.4" x2="792.0" y2="628.4" stroke="#e9ecf2" stroke-width="4"/><line x1="776.0" y1="278.4" x2="808.0" y2="278.4" stroke="#e9ecf2" stroke-width="4"/><line x1="792.0" y1="286.4" x2="746.0" y2="508.4" stroke="#2f6fe0" stroke-width="1.3" opacity="0.85"/><line x1="792.0" y1="286.4" x2="838.0" y2="508.4" stroke="#2f6fe0" stroke-width="1.3" opacity="0.85"/><line x1="792.0" y1="286.4" x2="700.0" y2="508.4" stroke="#2f6fe0" stroke-width="1.3" opacity="0.85"/><line x1="792.0" y1="286.4" x2="884.0" y2="508.4" stroke="#2f6fe0" stroke-width="1.3" opacity="0.85"/><line x1="792.0" y1="286.4" x2="654.0" y2="508.4" stroke="#2f6fe0" stroke-width="1.3" opacity="0.85"/><line x1="792.0" y1="286.4" x2="930.0" y2="508.4" stroke="#2f6fe0" stroke-width="1.3" opacity="0.85"/><line x1="792.0" y1="286.4" x2="608.0" y2="508.4" stroke="#2f6fe0" stroke-width="1.3" opacity="0.85"/><line x1="792.0" y1="286.4" x2="976.0" y2="508.4" stroke="#2f6fe0" stroke-width="1.3" opacity="0.85"/><line x1="792.0" y1="286.4" x2="562.0" y2="508.4" stroke="#2f6fe0" stroke-width="1.3" opacity="0.85"/><line x1="792.0" y1="286.4" x2="1022.0" y2="508.4" stroke="#2f6fe0" stroke-width="1.3" opacity="0.85"/><line x1="792.0" y1="286.4" x2="516.0" y2="508.4" stroke="#2f6fe0" stroke-width="1.3" opacity="0.85"/><line x1="792.0" y1="286.4" x2="1068.0" y2="508.4" stroke="#2f6fe0" stroke-width="1.3" opacity="0.85"/><line x1="792.0" y1="286.4" x2="470.0" y2="508.4" stroke="#2f6fe0" stroke-width="1.3" opacity="0.85"/><line x1="792.0" y1="286.4" x2="1114.0" y2="508.4" stroke="#2f6fe0" stroke-width="1.3" opacity="0.85"/><line x1="792.0" y1="286.4" x2="424.0" y2="508.4" stroke="#2f6fe0" stroke-width="1.3" opacity="0.85"/><line x1="792.0" y1="286.4" x2="1160.0" y2="508.4" stroke="#2f6fe0" stroke-width="1.3" opacity="0.85"/><rect x="782.0" y="628.4" width="20" height="60" fill="none" stroke="rgba(233,236,242,0.22)" stroke-width="1.5"/><line x1="40" y1="628.4" x2="1160" y2="628.4" stroke="rgba(233,236,242,0.22)" stroke-width="1" stroke-dasharray="10 8"/><text x="52" y="648.4" fill="rgba(233,236,242,0.22)" font-family="monospace" font-size="12">WATER LEVEL 0.00</text></svg>